<?xml version="1.0" encoding="utf-8"?>
<!-- Generator: Adobe Illustrator 14.0.0, SVG Export Plug-In  -->
<!DOCTYPE svg PUBLIC "-//W3C//DTD SVG 1.1//EN" "http://www.w3.org/Graphics/SVG/1.1/DTD/svg11.dtd" [
	<!ENTITY ns_flows "http://ns.adobe.com/Flows/1.0/">
]>
<svg version="1.1"
	 xmlns="http://www.w3.org/2000/svg" xmlns:xlink="http://www.w3.org/1999/xlink" xmlns:a="http://ns.adobe.com/AdobeSVGViewerExtensions/3.0/"
	 x="0px" y="0px" width="238px" height="67px" viewBox="-0.004 0 238 67" enable-background="new -0.004 0 238 67"
	 xml:space="preserve">
<defs>
</defs>
<path fill="#E3A9F5" d="M5.569,50.713l-0.007,0.008c5.745,9.711,16.318,16.229,28.418,16.229c0.003,0,0.006,0,0.01,0
	C21.89,66.945,11.311,60.428,5.569,50.713 M63.07,49.544l-0.651,0.65v0.502h0.001C62.645,50.316,62.861,49.934,63.07,49.544
	 M3.387,46.295L3.38,46.302c0.258,0.638,0.529,1.27,0.824,1.888l0.013-0.013C3.921,47.56,3.645,46.932,3.387,46.295 M60.503,45.511
	l-0.519,0.519h0.519V45.511 M1.814,41.268l-0.007,0.007c0.164,0.726,0.35,1.443,0.562,2.15l0.01-0.01
	C2.167,42.709,1.979,41.992,1.814,41.268 M65.169,40.845l-2.75,2.75v3.89l2.75-2.75V40.845 M60.503,38.912l-2.75,2.75v3.89
	l2.75-2.751V38.912 M55.836,36.979l-2.751,2.751v1.633h2.256l0.495-0.494V36.979 M1.033,35.449l-0.014,0.015
	c0.038,0.842,0.113,1.672,0.213,2.497l0.008-0.009C1.141,37.127,1.071,36.292,1.033,35.449 M51.169,35.046l-1.22,1.221
	c-0.061,0.143-0.121,0.287-0.182,0.43h1.402V35.046 M65.169,34.246l-2.75,2.749v3.889l2.75-2.75V34.246 M60.503,32.312l-2.75,2.75
	v3.889l2.75-2.75V32.312 M48.464,31.151l-0.045,0.045v0.061C48.434,31.222,48.449,31.187,48.464,31.151 M55.836,30.379l-2.751,2.75
	v3.89l2.751-2.75V30.379 M1.461,28.422l-0.012,0.012c-0.17,1.011-0.293,2.039-0.369,3.08l0.01-0.01
	C1.166,30.462,1.29,29.435,1.461,28.422 M65.169,27.646l-2.75,2.75v3.889l2.75-2.749V27.646 M60.503,25.712l-2.75,2.75v3.889
	l2.75-2.75V25.712 M55.836,23.778l-1.042,1.042c-0.57,1.346-1.14,2.69-1.708,4.033v1.564l2.751-2.75V23.778 M64.599,21.616
	l-2.179,2.179v3.889l2.75-2.75v-1.796C64.991,22.625,64.801,22.118,64.599,21.616 M60.503,19.111l-2.75,2.75v3.889l2.75-2.75V19.111
	 M4.89,18.393l-0.03,0.03c-0.817,1.531-1.513,3.134-2.085,4.795l0.015-0.015C3.363,21.536,4.067,19.928,4.89,18.393 M62.419,17.199
	v3.886l1.351-1.351C63.356,18.867,62.905,18.022,62.419,17.199 M33.98,0.949c-5.613,0-10.897,1.406-15.525,3.879l-0.01,0.01
	c4.632-2.481,9.924-3.888,15.545-3.889C33.987,0.949,33.984,0.949,33.98,0.949"/>
<path fill="#FF7BAC" d="M49.56,63.054c-4.632,2.483-9.928,3.894-15.552,3.896c0.003,0,0.007,0,0.011,0
	c5.613,0,10.897-1.407,15.525-3.879L49.56,63.054 M65.225,44.68l-0.028,0.027c-0.009,0.026-0.019,0.054-0.028,0.08v-0.028
	c-0.575,1.659-1.279,3.259-2.099,4.785l0.07-0.07C63.958,47.944,64.653,46.341,65.225,44.68 M66.92,36.384l-0.01,0.011
	c-0.077,1.042-0.203,2.072-0.375,3.085l0.017-0.017C66.721,38.452,66.844,37.425,66.92,36.384 M66.768,29.937l-0.01,0.01
	c0.101,0.825,0.17,1.659,0.209,2.502l0.014-0.015C66.943,31.593,66.867,30.761,66.768,29.937 M65.631,24.473l-0.016,0.016
	c0.211,0.706,0.4,1.422,0.565,2.146l0.012-0.012C66.028,25.897,65.843,25.179,65.631,24.473 M63.795,19.708l-0.025,0.025
	c0.295,0.617,0.571,1.245,0.829,1.882l0.021-0.021C64.362,20.958,64.09,20.327,63.795,19.708 M34.019,0.949c-0.005,0-0.01,0-0.015,0
	c0.001,0,0.003,0,0.005,0c1.499,0.001,2.975,0.102,4.42,0.297c0.219,0.029,0.438,0.061,0.656,0.094v0.001
	c1.221,0.189,2.421,0.446,3.594,0.766c0.36,0.096,0.718,0.198,1.073,0.308v0.004c0.936,0.29,1.853,0.62,2.751,0.988v0
	c0.649,0.266,1.289,0.548,1.917,0.854v0.006c0.942,0.459,1.86,0.962,2.75,1.507v-0.01c0.656,0.4,1.292,0.83,1.917,1.273v0.002
	c0.956,0.68,1.874,1.409,2.751,2.185V9.216c0.663,0.587,1.302,1.2,1.917,1.837v0.007c0.984,1.022,1.903,2.107,2.75,3.249v-0.022
	c0.688,0.927,1.326,1.895,1.917,2.893v0.014l0.018-0.017C56.693,7.466,46.12,0.949,34.019,0.949"/>
<path fill="#E352A5" d="M65.169,44.734l-2.75,2.75v2.71l0.651-0.65c0.82-1.526,1.524-3.126,2.099-4.785V44.734 M60.503,42.801
	l-2.75,2.751v0.478h2.231l0.519-0.519V42.801 M55.836,40.868l-0.495,0.494h0.495V40.868 M65.169,38.134l-2.75,2.75v2.711l2.75-2.75
	V38.134 M60.503,36.201l-2.75,2.75v2.711l2.75-2.75V36.201 M55.836,34.269l-2.751,2.75v2.711l2.751-2.751V34.269 M51.169,33.382
	c-0.255,0.604-0.51,1.206-0.765,1.808c-0.152,0.359-0.304,0.718-0.456,1.077l1.22-1.221V33.382 M65.169,31.535l-2.75,2.749v2.711
	l2.75-2.749V31.535 M60.503,29.601l-2.75,2.75v2.712l2.75-2.75V29.601 M55.836,27.668l-2.751,2.75v2.71l2.751-2.75V27.668
	 M65.169,24.935l-2.75,2.75v2.711l2.75-2.75V24.935 M60.503,23.001l-2.75,2.75v2.711l2.75-2.75V23.001 M55.836,22.36
	c-0.348,0.82-0.696,1.641-1.042,2.46l1.042-1.042V22.36 M63.77,19.734l-1.351,1.351v2.711l2.179-2.179
	C64.341,20.979,64.065,20.351,63.77,19.734 M57.753,11.061v10.801l2.75-2.75V14.31C59.656,13.168,58.737,12.083,57.753,11.061
	 M53.085,7.039v13.195c0.163-0.384,0.325-0.769,0.488-1.153h2.263V9.223C54.959,8.448,54.042,7.719,53.085,7.039 M48.419,4.267
	v26.93l0.045-0.045c0.104-0.246,0.208-0.491,0.312-0.737c0.794-1.875,1.592-3.759,2.393-5.652V5.773
	C50.279,5.229,49.361,4.726,48.419,4.267 M43.751,2.419v29.609l2.751,0.001V3.407C45.604,3.039,44.688,2.709,43.751,2.419
	 M39.085,1.341v26.021h2.75V1.893c0.283,0.069,0.563,0.14,0.844,0.215C41.506,1.788,40.306,1.531,39.085,1.341 M34.009,0.949
	c0.137,0,0.272,0.009,0.409,0.011v20.075c0.234,0.554,0.468,1.108,0.703,1.66l2.048,0V1.104c0.422,0.04,0.843,0.087,1.261,0.142
	C36.983,1.051,35.508,0.95,34.009,0.949"/>
<path fill="#FF1D25" d="M34,66.949c-0.003,0-0.006,0-0.009,0C33.994,66.949,33.997,66.949,34,66.949c0.003,0,0.006,0,0.009,0
	C34.005,66.949,34.003,66.949,34,66.949 M62.432,50.696h-0.011c-3.067,5.195-7.518,9.479-12.845,12.342l-0.016,0.016
	C54.899,60.191,59.359,55.901,62.432,50.696 M4.229,48.165l-0.013,0.012c0.415,0.868,0.866,1.713,1.353,2.536l0.012-0.012
	C5.096,49.878,4.644,49.031,4.229,48.165 M2.393,43.401l-0.014,0.014c0.292,0.98,0.63,1.94,1.009,2.88l0.014-0.014
	C3.022,45.342,2.685,44.381,2.393,43.401 M1.257,37.936L1.24,37.952c0.136,1.124,0.328,2.229,0.574,3.315l0.015-0.016
	C1.584,40.166,1.393,39.059,1.257,37.936 M1.109,31.483l-0.02,0.021C1.03,32.312,1,33.127,1,33.949c0,0.503,0.011,1.003,0.033,1.5
	l0.018-0.019c-0.021-0.491-0.032-0.984-0.032-1.481C1.019,33.119,1.049,32.298,1.109,31.483 M2.818,23.175l-0.029,0.029
	c-0.579,1.683-1.026,3.425-1.328,5.218l0.022-0.023C1.788,26.604,2.236,24.859,2.818,23.175 M62.419,17.194l-0.001,0.001
	c0,0.001,0.001,0.002,0.001,0.003V17.194 M18.445,4.838C12.698,7.916,7.967,12.646,4.89,18.393l0.041-0.041
	c3.071-5.716,7.776-10.421,13.493-13.493L18.445,4.838 M34,0.949c-0.003,0-0.006,0-0.01,0C33.994,0.949,33.997,0.949,34,0.949
	c0.001,0,0.003,0,0.004,0C34.002,0.949,34.001,0.949,34,0.949"/>
<path fill="#E300BB" d="M5.582,50.701l-0.012,0.012c5.741,9.715,16.32,16.232,28.421,16.236c0.003,0,0.006,0,0.009,0
	C21.898,66.942,11.319,60.42,5.582,50.701 M62.419,50.194L49.576,63.038c5.327-2.862,9.778-7.146,12.845-12.342h-0.001V50.194
	 M3.401,46.281l-0.014,0.014c0.257,0.637,0.534,1.265,0.83,1.882l0.013-0.012C3.934,47.546,3.658,46.92,3.401,46.281 M62.419,43.595
	l-1.917,1.916v0.519h-0.519L44.453,61.562l1.943,1.945l16.023-16.022V43.595 M57.753,41.662l-13.3,13.301l1.943,1.945l11.357-11.356
	V41.662 M1.83,41.252l-0.015,0.016c0.165,0.725,0.353,1.441,0.564,2.147l0.014-0.014C2.182,42.694,1.994,41.979,1.83,41.252
	 M53.085,39.729l-7.983,7.984c-0.129,0.305-0.258,0.607-0.387,0.912l1.681,1.683l8.946-8.946h-2.256V39.729 M62.419,36.995
	l-1.917,1.917v3.889l1.917-1.917V36.995 M1.051,35.431l-0.018,0.019c0.038,0.843,0.107,1.678,0.207,2.503l0.017-0.017
	C1.158,37.11,1.089,36.274,1.051,35.431 M57.753,35.062l-1.917,1.916v3.89l1.917-1.917V35.062 M53.085,33.129l-1.917,1.917v1.65
	h-1.402c-0.889,2.1-1.779,4.204-2.673,6.313l5.991-5.991V33.129 M62.419,30.396l-1.917,1.917v3.889l1.917-1.917V30.396
	 M53.085,28.854c-0.383,0.905-0.766,1.809-1.148,2.713l1.148-1.148V28.854 M57.753,28.462l-1.917,1.917v3.89l1.917-1.918V28.462
	 M1.483,28.399l-0.022,0.023c-0.171,1.013-0.295,2.04-0.372,3.082l0.02-0.021C1.187,30.442,1.312,29.412,1.483,28.399
	 M62.419,23.795l-1.917,1.917v3.889l1.917-1.917V23.795 M57.753,21.862l-1.917,1.917v3.89l1.917-1.917V21.862 M4.93,18.352
	L4.89,18.393c-0.823,1.535-1.526,3.143-2.101,4.811l0.029-0.029C3.395,21.503,4.104,19.89,4.93,18.352 M62.418,17.196l-1.915,1.916
	v3.89l1.917-1.917v-3.886C62.419,17.198,62.418,17.197,62.418,17.196 M33.99,0.949C28.369,0.95,23.077,2.357,18.445,4.838
	l-0.022,0.021C23.061,2.368,28.367,0.952,34,0.949C33.997,0.949,33.994,0.949,33.99,0.949"/>
<path fill="#FF0000" d="M49.576,63.038C44.938,65.53,39.633,66.946,34,66.949c0.003,0,0.005,0,0.009,0
	c5.624-0.002,10.919-1.412,15.552-3.896L49.576,63.038 M19.409,32.983L4.229,48.165c0.414,0.866,0.866,1.713,1.352,2.536
	l14.984-14.984c-0.074-0.176-0.149-0.352-0.223-0.527C20.031,34.455,19.721,33.72,19.409,32.983 M22.518,31.704
	c0.204,0.482,0.408,0.965,0.612,1.447l0.417-0.417L22.518,31.704 M17.446,28.347L2.393,43.401c0.292,0.979,0.629,1.94,1.008,2.88
	l15.202-15.202C18.217,30.169,17.832,29.259,17.446,28.347 M21.604,24.19l-1.594,1.593c0.387,0.913,0.772,1.823,1.157,2.731
	l2.38-2.38L21.604,24.19 M15.482,23.71L1.257,37.936c0.135,1.123,0.327,2.23,0.572,3.316l14.81-14.81
	C16.254,25.533,15.869,24.622,15.482,23.71 M21.604,17.589l-3.556,3.556c0.386,0.913,0.771,1.824,1.156,2.733l4.343-4.344
	L21.604,17.589 M60.503,14.287v0.022c0.687,0.926,1.326,1.89,1.915,2.886l0.001-0.001V17.18
	C61.829,16.182,61.191,15.214,60.503,14.287 M21.604,10.99L1.109,31.483c-0.06,0.814-0.09,1.636-0.09,2.466
	c0,0.497,0.011,0.99,0.032,1.481l13.624-13.624c-0.385-0.908-0.77-1.817-1.156-2.727h3.654c0.022,0.054,0.045,0.107,0.068,0.161
	l6.305-6.306L21.604,10.99 M55.836,9.216v0.007c0.663,0.586,1.303,1.2,1.917,1.837v-0.007C57.139,10.416,56.5,9.803,55.836,9.216
	 M18.423,4.859C12.706,7.931,8.001,12.636,4.93,18.352L18.423,4.859 M21.604,4.39L2.818,23.175c-0.582,1.685-1.03,3.429-1.334,5.224
	L23.547,6.334L21.604,4.39 M34.004,0.949c-0.001,0-0.003,0-0.004,0c0.002,0,0.007,0,0.009,0C34.007,0.949,34.005,0.949,34.004,0.949
	"/>
<path fill="#E30000" d="M62.419,40.884l-1.917,1.917v2.71l1.917-1.916V40.884 M53.085,37.019l-5.991,5.991
	c-0.663,1.565-1.327,3.133-1.992,4.704l7.983-7.984V37.019 M62.419,34.284l-1.917,1.917v2.711l1.917-1.917V34.284 M57.753,32.351
	l-1.917,1.918v2.71l1.917-1.916V32.351 M35.351,31.404c-0.411,1.644-0.938,3.309-1.583,4.996c-0.646,1.688-1.351,3.367-2.114,5.04
	c-0.763,1.672-1.533,3.337-2.311,4.994c-0.779,1.658-1.504,3.278-2.179,4.864c-2.213-5.22-4.413-10.416-6.599-15.582L5.582,50.701
	C11.319,60.42,21.898,66.942,34,66.949c5.633-0.003,10.938-1.419,15.577-3.911l12.843-12.844v-2.71L46.396,63.507l-1.943-1.945
	l15.532-15.532h-2.231v-0.478L46.396,56.908l-1.943-1.945l13.3-13.301v-2.711l-1.917,1.917v0.494h-0.495l-8.946,8.946l-1.681-1.683
	c-0.377,0.891-0.755,1.781-1.133,2.673l-7.791-18.354c-0.059-0.265-0.132-0.521-0.22-0.771
	C35.483,31.925,35.41,31.667,35.351,31.404 M18.603,31.079L3.401,46.281c0.257,0.639,0.533,1.265,0.829,1.884l15.18-15.182
	C19.141,32.35,18.872,31.714,18.603,31.079 M53.085,30.418l-1.148,1.148c-0.256,0.606-0.512,1.21-0.768,1.815v1.664l1.917-1.917
	V30.418 M62.419,27.684l-1.917,1.917v2.711l1.917-1.917V27.684 M16.64,26.442L1.83,41.252c0.165,0.727,0.352,1.442,0.563,2.149
	l15.053-15.054C17.178,27.713,16.909,27.078,16.64,26.442 M57.753,25.751l-1.917,1.917v2.711l1.917-1.917V25.751 M14.675,21.807
	L1.051,35.431c0.038,0.844,0.107,1.68,0.206,2.505L15.482,23.71C15.213,23.077,14.944,22.442,14.675,21.807 M62.419,21.084
	l-1.917,1.917v2.711l1.917-1.917V21.084 M60.503,14.31v4.802l1.915-1.916C61.829,16.199,61.189,15.236,60.503,14.31 M55.836,9.223
	v9.857h1.39c-0.464,1.095-0.928,2.188-1.39,3.28v1.418l1.917-1.917V11.061C57.139,10.423,56.499,9.81,55.836,9.223 M34,0.949
	c-5.633,0.003-10.938,1.419-15.577,3.911L4.93,18.352c-0.826,1.538-1.535,3.151-2.112,4.823L21.604,4.39l1.943,1.945L1.483,28.399
	c-0.171,1.013-0.297,2.043-0.374,3.084L21.604,10.99l1.943,1.945l-6.305,6.306c0.269,0.636,0.538,1.271,0.806,1.905l3.556-3.556
	l1.943,1.945l-4.343,4.344c0.27,0.636,0.538,1.271,0.806,1.905l1.594-1.593l1.943,1.945l-2.38,2.38
	c0.269,0.635,0.537,1.268,0.805,1.899c0.182,0.429,0.364,0.86,0.546,1.29l1.029,1.03l-0.417,0.417
	c1.204,2.845,2.417,5.711,3.638,8.596l0.396,1.452c0.352-1.319,0.785-2.632,1.298-3.938c0.513-1.306,1.057-2.612,1.629-3.918
	s1.159-2.604,1.76-3.896c0.601-1.291,1.167-2.567,1.695-3.83c-0.587-1.437-1.188-2.86-1.805-4.269
	c-0.616-1.409-1.218-2.832-1.805-4.27h3.654c0.276,0.653,0.552,1.304,0.827,1.955V0.959c-0.137-0.002-0.272-0.01-0.409-0.011
	C34.006,0.949,34.002,0.949,34,0.949"/>
<path fill="#E300BB" d="M48.419,31.196l-3.966,3.967l1.624,1.625c0.784-1.853,1.565-3.695,2.342-5.531V31.196"/>
<path fill="#FF0000" d="M46.502,3.407L46.502,3.407c0.649,0.267,1.289,0.554,1.917,0.859V4.261
	C47.792,3.955,47.151,3.673,46.502,3.407 M42.679,2.107c0.36,0.098,0.718,0.202,1.073,0.312V2.415
	C43.397,2.305,43.039,2.203,42.679,2.107 M38.429,1.246c0.22,0.03,0.437,0.062,0.656,0.096V1.34
	C38.867,1.306,38.648,1.275,38.429,1.246"/>
<path fill="#E30000" d="M37.168,1.104v21.592l-2.048,0c1.096,2.59,2.186,5.163,3.268,7.719c1.585,3.741,3.183,7.52,4.797,11.333
	l0.396,1.452l0.396-1.452c0.702-1.659,1.401-3.312,2.098-4.959l-1.624-1.625l3.966-3.967V4.267
	c-0.627-0.306-1.267-0.592-1.917-0.859v28.622l-2.751-0.001V2.419c-0.355-0.11-0.712-0.214-1.073-0.312
	c-0.28-0.075-0.561-0.146-0.844-0.215v25.469h-2.75V1.341c-0.219-0.034-0.436-0.065-0.656-0.096
	C38.011,1.19,37.591,1.144,37.168,1.104"/>
<path fill="#FF0000" d="M51.169,5.763v0.01c0.654,0.4,1.293,0.822,1.917,1.265V7.036C52.461,6.593,51.825,6.164,51.169,5.763"/>
<path fill="#E30000" d="M51.169,5.773v18.989c0.637-1.504,1.275-3.013,1.917-4.529V7.039C52.462,6.595,51.823,6.173,51.169,5.773"/>
<path fill="#FF1D25" d="M66.534,39.479l-0.018,0.019c-0.304,1.794-0.753,3.54-1.334,5.224l0.015-0.015
	C65.778,43.021,66.229,41.275,66.534,39.479 M66.966,32.449l-0.018,0.019c0.021,0.491,0.032,0.984,0.032,1.481
	c0,0.829-0.03,1.651-0.09,2.465l0.02-0.02c0.06-0.808,0.09-1.622,0.09-2.445C67,33.446,66.988,32.946,66.966,32.449 M66.18,26.635
	l-0.011,0.011c0.246,1.086,0.438,2.192,0.573,3.316l0.015-0.015C66.62,28.825,66.427,27.72,66.18,26.635 M65.169,23.11v0.029
	c0.156,0.449,0.302,0.901,0.438,1.358l0.008-0.008C65.476,24.025,65.328,23.565,65.169,23.11"/>
<path fill="#E300BB" d="M66.516,39.498l-1.347,1.347v3.89l0.013-0.013C65.763,43.038,66.212,41.292,66.516,39.498 M66.948,32.468
	l-1.779,1.778v3.888l1.721-1.72c0.06-0.813,0.09-1.636,0.09-2.465C66.98,33.452,66.969,32.959,66.948,32.468 M66.169,26.646l-1,1
	v3.889l1.573-1.573C66.607,28.838,66.415,27.732,66.169,26.646 M65.169,23.139v1.796l0.438-0.438
	C65.471,24.04,65.325,23.587,65.169,23.139"/>
<path fill="#FF0000" d="M65.197,44.707l-0.015,0.015c-0.004,0.014-0.008,0.024-0.013,0.037v0.028
	C65.178,44.761,65.188,44.733,65.197,44.707 M66.91,36.395l-0.02,0.02c-0.077,1.043-0.202,2.07-0.374,3.084l0.018-0.019
	C66.707,38.467,66.833,37.437,66.91,36.395 M66.757,29.947l-0.015,0.015c0.099,0.825,0.168,1.662,0.206,2.506l0.018-0.019
	C66.928,31.606,66.858,30.771,66.757,29.947 M65.615,24.489l-0.008,0.008c0.211,0.707,0.398,1.423,0.562,2.149l0.011-0.011
	C66.015,25.911,65.826,25.194,65.615,24.489"/>
<path fill="#E30000" d="M65.182,44.722l-0.013,0.013v0.024C65.173,44.746,65.177,44.735,65.182,44.722 M66.89,36.414l-1.721,1.72
	v2.711l1.347-1.347C66.688,38.484,66.813,37.457,66.89,36.414 M66.742,29.962l-1.573,1.573v2.711l1.779-1.778
	C66.911,31.624,66.841,30.787,66.742,29.962 M65.607,24.497l-0.438,0.438v2.711l1-1C66.005,25.92,65.818,25.204,65.607,24.497"/>
<path fill="#E31324" d="M54.794,24.821l-1.708,1.708v2.325C53.654,27.511,54.224,26.167,54.794,24.821"/>
<path fill="#E30918" d="M34.418,21.035v1.66h0.703C34.886,22.143,34.652,21.588,34.418,21.035 M55.836,19.08h-2.263
	c-0.163,0.385-0.326,0.77-0.488,1.153v6.295l1.708-1.708c0.347-0.819,0.694-1.64,1.042-2.46V19.08"/>
<path fill="#E31324" d="M49.949,36.267l-0.429,0.43h0.248C49.828,36.554,49.888,36.409,49.949,36.267 M51.169,28.446l-2.705,2.705
	c-0.015,0.036-0.03,0.071-0.045,0.106v3.828l2.75-2.75V28.446"/>
<path fill="#E30918" d="M51.169,32.335l-2.75,2.75v1.611h1.101l0.429-0.43c0.152-0.359,0.304-0.718,0.456-1.077
	c0.255-0.602,0.51-1.204,0.765-1.808V32.335 M51.169,24.762c-0.801,1.893-1.599,3.777-2.393,5.652
	c-0.104,0.246-0.208,0.491-0.312,0.737l2.705-2.705V24.762"/>
<path fill="#E30000" d="M57.227,19.08h-1.39v3.28C56.299,21.268,56.762,20.175,57.227,19.08"/>
<path fill="#E3001B" d="M45.102,47.714l-0.649,0.649l0.262,0.263C44.844,48.321,44.973,48.019,45.102,47.714 M49.767,36.696H49.52
	l-5.067,5.066l1.943,1.945l0.698-0.698C47.988,40.9,48.878,38.796,49.767,36.696 M48.419,31.257
	c-0.777,1.835-1.558,3.678-2.342,5.531l0.319,0.319l2.023-2.022V31.257"/>
<path fill="#FF0000" d="M21.604,30.79l-2.194,2.194c0.312,0.736,0.622,1.472,0.933,2.206c0.074,0.176,0.149,0.352,0.223,0.527
	l2.564-2.565c-0.205-0.482-0.409-0.965-0.612-1.447L21.604,30.79 M20.01,25.783l-2.564,2.564c0.386,0.912,0.771,1.822,1.157,2.732
	l2.564-2.564C20.782,27.606,20.396,26.696,20.01,25.783 M18.047,21.146l-2.565,2.565c0.386,0.912,0.771,1.822,1.157,2.732
	l2.564-2.564C18.819,22.97,18.434,22.059,18.047,21.146 M17.174,19.08H13.52c0.386,0.91,0.771,1.819,1.156,2.727l2.566-2.566
	C17.219,19.187,17.196,19.134,17.174,19.08"/>
<path fill="#E30000" d="M21.167,28.515l-2.564,2.564c0.269,0.635,0.538,1.271,0.807,1.904l2.194-2.194l0.914,0.915
	c-0.183-0.43-0.365-0.861-0.546-1.29C21.704,29.782,21.435,29.149,21.167,28.515 M19.204,23.878l-2.564,2.564
	c0.269,0.635,0.538,1.271,0.806,1.905l2.564-2.564C19.742,25.149,19.473,24.514,19.204,23.878 M17.242,19.241l-2.566,2.566
	c0.269,0.635,0.538,1.27,0.807,1.903l2.565-2.565C17.779,20.512,17.51,19.877,17.242,19.241 M33.591,19.08h-3.654
	c0.587,1.438,1.189,2.861,1.805,4.27c0.617,1.408,1.218,2.832,1.805,4.269c-0.527,1.263-1.094,2.539-1.695,3.83
	c-0.601,1.292-1.187,2.59-1.76,3.896s-1.116,2.612-1.629,3.918c-0.514,1.306-0.946,2.618-1.298,3.938l-0.396-1.452
	c-1.221-2.885-2.434-5.751-3.638-8.596l-2.564,2.565c2.186,5.166,4.386,10.362,6.599,15.582c0.674-1.586,1.4-3.206,2.179-4.864
	c0.777-1.657,1.548-3.322,2.311-4.994c0.763-1.673,1.468-3.353,2.114-5.04c0.645-1.688,1.172-3.353,1.583-4.996
	c0.059,0.263,0.132,0.521,0.221,0.771c0.088,0.25,0.161,0.506,0.22,0.771l7.791,18.354c0.378-0.892,0.756-1.782,1.133-2.673
	l-0.262-0.263l0.649-0.649c0.666-1.571,1.33-3.139,1.992-4.704l-0.698,0.698l-1.943-1.945l5.067-5.066h-1.101v-1.611l-2.023,2.022
	l-0.319-0.319c-0.697,1.646-1.396,3.3-2.098,4.959l-0.396,1.452l-0.396-1.452c-1.614-3.813-3.212-7.592-4.797-11.333
	c-1.083-2.556-2.172-5.129-3.268-7.719h-0.703v-1.66C34.143,20.384,33.867,19.733,33.591,19.08"/>
<path fill="#E3001B" d="M53.085,26.529l-1.917,1.917v3.889l0.768-0.768c0.382-0.904,0.765-1.808,1.148-2.713V26.529"/>
<path fill="#E30000" d="M51.937,31.567l-0.768,0.768v1.047C51.425,32.777,51.681,32.173,51.937,31.567 M53.085,20.233
	c-0.641,1.516-1.28,3.025-1.917,4.529v3.684l1.917-1.917V20.233"/>
<path fill="#FFFFFF" d="M52.024,18.533h3.653c-2.288,5.4-4.562,10.769-6.822,16.11c-2.26,5.34-4.533,10.709-6.823,16.108
	l-7.791-18.354c-0.059-0.265-0.132-0.521-0.22-0.771c-0.088-0.249-0.162-0.506-0.22-0.77c-0.412,1.644-0.94,3.308-1.584,4.995
	c-0.646,1.688-1.35,3.367-2.113,5.04c-0.764,1.672-1.534,3.338-2.312,4.994c-0.777,1.659-1.504,3.28-2.179,4.865
	c-2.288-5.399-4.563-10.769-6.822-16.108c-2.259-5.341-4.533-10.71-6.822-16.11h3.654c1.613,3.815,3.213,7.593,4.797,11.333
	c1.584,3.743,3.184,7.52,4.798,11.335l0.396,1.452c0.353-1.32,0.785-2.634,1.299-3.939c0.513-1.306,1.056-2.611,1.629-3.918
	c0.572-1.304,1.159-2.604,1.76-3.895c0.602-1.291,1.167-2.567,1.695-3.829c-0.587-1.438-1.188-2.861-1.804-4.27
	c-0.617-1.408-1.218-2.831-1.805-4.269h3.653c1.613,3.815,3.213,7.593,4.798,11.333c1.584,3.743,3.183,7.52,4.797,11.335
	l0.396,1.452l0.396-1.452c1.613-3.815,3.213-7.592,4.797-11.335C48.811,26.126,50.41,22.348,52.024,18.533z"/>
<rect id="_x3C_Slice_x3E__1_" fill="none" width="238" height="67"/>
<path fill="#FFFFFF" d="M114.956,19.067h3.984c-2.496,5.888-4.977,11.744-7.439,17.568c-2.465,5.825-4.945,11.681-7.441,17.568
	l-8.496-20.017c-0.064-0.287-0.144-0.567-0.24-0.84c-0.096-0.271-0.176-0.552-0.24-0.84c-0.448,1.793-1.024,3.608-1.728,5.448
	c-0.704,1.841-1.472,3.672-2.304,5.496c-0.833,1.824-1.673,3.641-2.52,5.448c-0.849,1.808-1.641,3.575-2.376,5.304
	c-2.496-5.888-4.977-11.743-7.44-17.568c-2.465-5.824-4.944-11.68-7.44-17.568h3.984c1.759,4.16,3.504,8.28,5.232,12.36
	c1.728,4.08,3.472,8.201,5.232,12.36l0.432,1.584c0.384-1.44,0.855-2.872,1.416-4.296c0.559-1.424,1.152-2.848,1.776-4.272
	c0.624-1.423,1.264-2.839,1.92-4.248c0.655-1.407,1.272-2.799,1.848-4.176c-0.641-1.567-1.296-3.12-1.968-4.656
	c-0.672-1.536-1.328-3.088-1.968-4.656h3.984c1.759,4.16,3.504,8.28,5.232,12.36c1.728,4.08,3.472,8.201,5.232,12.36l0.432,1.584
	l0.432-1.584c1.76-4.159,3.504-8.28,5.232-12.36C111.452,27.347,113.196,23.227,114.956,19.067z"/>
<path fill="#FFFFFF" d="M149.069,52.667h-3.984c-0.929-2.208-1.864-4.424-2.808-6.648c-0.944-2.224-1.881-4.439-2.809-6.647h-10.56
	c-0.929,2.208-1.865,4.424-2.809,6.647c-0.944,2.225-1.88,4.44-2.808,6.648h-3.984c2.496-5.888,4.976-11.743,7.441-17.568
	c2.464-5.823,4.943-11.679,7.439-17.568c2.496,5.889,4.976,11.745,7.44,17.568C144.093,40.924,146.573,46.779,149.069,52.667z
	 M134.621,27.947l-0.433-1.584c-0.448,1.601-1.008,3.152-1.68,4.656c-0.672,1.504-1.328,3.024-1.968,4.56h7.296
	c-0.545-1.279-1.08-2.552-1.608-3.816C135.701,30.499,135.165,29.227,134.621,27.947z"/>
<path fill="#FFFFFF" d="M175.373,47.483l2.159,3.168c-1.28,0.736-2.647,1.319-4.104,1.752c-1.457,0.432-3,0.647-4.632,0.647
	c-2.369,0-4.593-0.447-6.672-1.344c-2.081-0.896-3.896-2.119-5.448-3.672c-1.553-1.552-2.776-3.367-3.672-5.448
	c-0.896-2.08-1.345-4.304-1.345-6.672s0.448-4.6,1.345-6.696c0.896-2.095,2.119-3.919,3.672-5.472
	c1.552-1.552,3.367-2.784,5.448-3.696c2.079-0.912,4.303-1.368,6.672-1.368c1.632,0,3.175,0.208,4.632,0.624
	c1.456,0.416,2.84,1.008,4.152,1.776c-0.353,0.544-0.721,1.08-1.104,1.608s-0.752,1.064-1.104,1.608
	c-0.993-0.576-2.033-1.023-3.12-1.344c-1.089-0.32-2.24-0.48-3.456-0.48c-1.824,0-3.528,0.353-5.112,1.056
	c-1.584,0.705-2.976,1.673-4.176,2.904c-1.2,1.232-2.145,2.664-2.832,4.296c-0.688,1.632-1.032,3.36-1.032,5.184
	s0.344,3.552,1.032,5.184c0.688,1.633,1.632,3.049,2.832,4.248c1.2,1.2,2.592,2.152,4.176,2.856s3.288,1.056,5.112,1.056
	C171.164,49.259,173.356,48.667,175.373,47.483z"/>
<path fill="#FFFFFF" d="M208.204,52.667h-4.752c-2.304-2.911-4.592-5.815-6.863-8.712c-2.273-2.896-4.561-5.8-6.864-8.712
	c-0.513,0.479-1.008,0.952-1.488,1.416c-0.479,0.464-0.977,0.936-1.488,1.416v14.592h-3.983v-33.6h3.983v13.152
	c-0.032,0.257-0.056,0.513-0.071,0.769c-0.017,0.256-0.041,0.512-0.072,0.768c0.159-0.191,0.312-0.376,0.456-0.552
	c0.144-0.176,0.295-0.36,0.456-0.553c2.399-2.271,4.775-4.535,7.128-6.792c2.352-2.256,4.728-4.52,7.128-6.792h4.896
	c-2.399,2.304-4.784,4.577-7.151,6.816c-2.369,2.24-4.752,4.512-7.152,6.816c2.656,3.359,5.296,6.688,7.92,9.983
	C202.908,45.979,205.548,49.307,208.204,52.667z"/>
<path fill="#FFFFFF" d="M224.102,53.051c-1.729,0-3.329-0.24-4.8-0.72c-1.473-0.48-2.753-1.191-3.841-2.136
	c-1.088-0.943-1.936-2.12-2.544-3.528c-0.607-1.408-0.911-3.024-0.911-4.848V19.067h3.983v22.608c0,1.217,0.199,2.297,0.601,3.24
	c0.399,0.944,0.96,1.736,1.68,2.376c0.72,0.641,1.575,1.128,2.568,1.464c0.991,0.336,2.079,0.504,3.264,0.504
	c1.184,0,2.271-0.168,3.264-0.504c0.991-0.336,1.849-0.823,2.568-1.464c0.72-0.64,1.287-1.432,1.704-2.376
	c0.415-0.943,0.624-2.023,0.624-3.24V19.067h3.983v22.752c0,1.823-0.312,3.439-0.936,4.848s-1.48,2.585-2.568,3.528
	c-1.088,0.944-2.368,1.655-3.84,2.136C227.429,52.811,225.829,53.051,224.102,53.051z"/>
</svg>
